# xmcd
#
# Track frame offsets: 
#        182
#        49845
#        68145
#        85770
#        108645
#
# Disc length: 1679 seconds
#
# Revision: 0
# Processed by: cddbd v1.5.2PL0 Copyright (c) Steve Scherf et al.
# Submitted via: ExactAudioCopy v0.99pb3
#
DISCID=3d068d05
DTITLE=Eros Ramazzotti - musica é
DYEAR=1988
DGENRE=Pop
TTITLE0=Musica É
TTITLE1=Ti Sposeró perché
TTITLE2=In Segno D'Amicizia
TTITLE3=Solo Con Te
TTITLE4=Uno Di Noi
EXTD=
EXTT0=
EXTT1=
EXTT2=
EXTT3=
EXTT4=
PLAYORDER=
